<svg id="Layer_1" data-name="Layer 1" xmlns="http://www.w3.org/2000/svg" viewBox="0 0 280 300"><defs><style>.cls-1{fill-rule:evenodd;}</style></defs><path class="cls-1" d="M88.69,149.75a26.6,26.6,0,1,0,26.59,26.59,26.6,26.6,0,0,0-26.59-26.59Zm0,12.16a14.44,14.44,0,1,1-14.44,14.43,14.44,14.44,0,0,1,14.44-14.43Z"/><path class="cls-1" d="M120.3,167.94v34h11.2V185.55c0-5.4,4.8-7.6,9.61-7.6V167.74c-3.21,0-7.81,1-9.61,4.4v-4.2Z"/><path class="cls-1" d="M183.86,184.75a17.54,17.54,0,0,0-26.57-15.05V153.54H146.11V202h11.2l.07-2.11a17.55,17.55,0,0,0,26.48-15.1Zm-11.65,0a7.5,7.5,0,1,1-7.49-7.5,7.49,7.49,0,0,1,7.49,7.5Z"/><path class="cls-1" d="M194.33,164.34a5.8,5.8,0,1,0-5.8-5.8,5.8,5.8,0,0,0,5.8,5.8Z"/><path class="cls-1" d="M189.15,168.29a11,11,0,0,0,5.18,1.28,9.9,9.9,0,0,0,6-1.88V202H189.12l0-33.67Z"/><path class="cls-1" d="M207.53,159.94v33c0,7.2,3.8,11.61,17.61,9.21v-8.81c-3.6.8-6.4,1.4-6.4-2v-13.8h6.4v-6.81h-6.4v-10.8Z"/><path class="cls-1" d="M234.14,161.14c-13.2-9.61-122-89.25-178.47-56-13.6,8-11.2,36.81-4,44-1.6-14.8,3.26-24.32,12.81-30.81,43.61-29.61,155.26,33.21,169.66,42.82Z"/></svg>